<svg width="740" height="740" viewBox="0 0 740 740" fill="none" xmlns="http://www.w3.org/2000/svg">
<g clip-path="url(#clip0_3_6)">
<rect width="740" height="740" fill="white"/>
<path d="M585.467 300.949C542.513 264.935 471.735 279.373 422.012 290.647C391.815 297.492 361.29 304.78 330.183 305.416C301.265 306.005 279.073 297.842 253.315 286.268C237.139 278.999 225.176 267.514 209.91 258.961C194.165 250.139 177.612 242.481 159.859 238.766C129.33 232.375 104.752 241.225 90.6578 269.029C77.1219 295.73 74.6437 327.053 76.4359 356.499C77.5382 374.602 80.5521 393.098 85.8246 410.823C102.798 467.861 155.45 506.823 214.966 506.823H619.739C632.719 491.618 640.921 473.962 645.122 454.479C657.286 398.074 629.686 338.022 585.467 300.949Z" fill="url(#paint0_radial_3_6)"/>
<path d="M320.281 520.698L378.479 534.187" stroke="#EECFF8" stroke-width="0.385417" stroke-miterlimit="10"/>
<path d="M381.563 534.188L361.135 523.396" stroke="#EECFF8" stroke-width="0.385417" stroke-miterlimit="10"/>
<path d="M348.031 534.958L287.521 536.5" stroke="#EECFF8" stroke-width="0.385417" stroke-miterlimit="10"/>
<path d="M364.284 534.974C365.028 534.974 365.028 533.818 364.284 533.818C363.54 533.818 363.536 534.974 364.284 534.974Z" fill="#EECFF8"/>
<path d="M385.316 530.106C386.06 530.106 386.06 528.95 385.316 528.95C384.573 528.95 384.569 530.106 385.316 530.106Z" fill="#EECFF8"/>
<path d="M385.509 536.334C386.253 536.334 386.253 535.178 385.509 535.178C384.765 535.178 384.765 536.334 385.509 536.334Z" fill="#EECFF8"/>
<path d="M275.677 535.752C276.421 535.752 276.421 534.596 275.677 534.596C274.933 534.596 274.933 535.752 275.677 535.752Z" fill="#EECFF8"/>
<path d="M329.428 512.577C330.171 512.577 330.171 511.421 329.428 511.421C328.684 511.421 328.68 512.577 329.428 512.577Z" fill="#EECFF8"/>
<path d="M304.109 500.895C304.853 500.895 304.853 499.739 304.109 499.739C303.365 499.739 303.365 500.895 304.109 500.895Z" fill="#EECFF8"/>
<path d="M471.75 534.38H521.083" stroke="#EECFF8" stroke-width="0.385417" stroke-miterlimit="10"/>
<path d="M529.177 534.38H629.385" stroke="#EECFF8" stroke-width="0.385417" stroke-miterlimit="10"/>
<path d="M498.922 529.37H539.776" stroke="#EECFF8" stroke-width="0.385417" stroke-miterlimit="10"/>
<path d="M576.098 510.762C576.098 510.762 577.393 512.92 584.731 513.352C592.069 513.784 592.069 520.69 596.386 520.69C600.703 520.69 598.544 516.805 596.818 515.079C595.091 513.352 591.638 510.33 591.638 510.33C591.638 510.33 586.026 509.035 584.299 506.877C582.573 504.719 577.824 502.992 577.824 502.992L576.098 510.762Z" fill="#FB8F8F"/>
<path d="M576.098 510.762C576.098 510.762 577.393 512.92 584.731 513.352C592.069 513.784 592.069 520.69 596.386 520.69C600.703 520.69 598.544 516.805 596.818 515.079C595.091 513.352 591.638 510.33 591.638 510.33C591.638 510.33 586.026 509.035 584.299 506.877C582.573 504.719 577.824 502.992 577.824 502.992L576.098 510.762Z" fill="url(#paint1_radial_3_6)"/>
<path d="M576.098 510.762C576.098 510.762 577.393 512.92 584.731 513.352C592.069 513.784 592.069 520.69 596.386 520.69C600.703 520.69 598.544 516.805 596.818 515.079C595.091 513.352 591.638 510.33 591.638 510.33C591.638 510.33 586.026 509.035 584.299 506.877C582.573 504.719 577.824 502.992 577.824 502.992L576.098 510.762Z" fill="url(#paint2_radial_3_6)"/>
<path d="M529.474 501.693C529.474 501.693 527.747 506.441 523.862 511.19C523.862 511.19 521.704 512.485 525.157 514.643C528.61 516.801 533.359 518.96 533.79 522.845C533.79 522.845 534.222 524.571 532.064 525.003C529.905 525.435 526.452 523.276 526.452 523.276C526.452 523.276 522.999 519.823 519.545 518.096C516.092 516.37 512.639 514.643 512.639 512.485C512.639 510.326 516.524 503.851 516.524 503.851C516.524 503.851 526.02 495.218 529.474 501.693Z" fill="#FB8F8F"/>
<path d="M529.474 501.693C529.474 501.693 527.747 506.441 523.862 511.19C523.862 511.19 521.704 512.485 525.157 514.643C528.61 516.801 533.359 518.96 533.79 522.845C533.79 522.845 534.222 524.571 532.064 525.003C529.905 525.435 526.452 523.276 526.452 523.276C526.452 523.276 522.999 519.823 519.545 518.096C516.092 516.37 512.639 514.643 512.639 512.485C512.639 510.326 516.524 503.851 516.524 503.851C516.524 503.851 526.02 495.218 529.474 501.693Z" fill="url(#paint3_radial_3_6)"/>
<path d="M529.474 501.693C529.474 501.693 527.747 506.441 523.862 511.19C523.862 511.19 521.704 512.485 525.157 514.643C528.61 516.801 533.359 518.96 533.79 522.845C533.79 522.845 534.222 524.571 532.064 525.003C529.905 525.435 526.452 523.276 526.452 523.276C526.452 523.276 522.999 519.823 519.545 518.096C516.092 516.37 512.639 514.643 512.639 512.485C512.639 510.326 516.524 503.851 516.524 503.851C516.524 503.851 526.02 495.218 529.474 501.693Z" fill="url(#paint4_radial_3_6)"/>
<path d="M551.87 484.291C545.615 484.827 539.321 483.998 533.351 482.048C526.548 479.824 514.127 476.884 502.703 480.11C493.11 482.815 487.579 488.465 481.563 492.986C475.284 497.7 467.422 499.789 459.617 498.922L454.58 498.363C454.117 498.313 453.843 498.868 454.167 499.203C455.69 500.772 460.361 503.501 473.777 501.265C491.911 498.244 497.954 490.474 497.954 490.474C497.954 490.474 498.386 498.244 496.228 502.129C494.069 506.014 488.026 512.489 488.026 512.489L492.774 525.007C492.774 525.007 495.796 526.302 500.113 525.007L501.408 523.712C501.408 523.712 501.839 520.259 498.818 519.827C498.818 519.827 496.659 518.964 497.954 515.078C499.249 511.194 501.408 509.898 510.904 509.898C520.401 509.898 524.722 503.424 524.722 503.424C524.722 503.424 532.923 503.855 538.539 508.604C544.15 513.352 559.694 518.963 568.759 515.942C568.759 515.942 572.644 519.827 573.076 522.849C573.508 525.87 573.939 527.597 578.688 527.165C578.688 527.165 582.141 526.734 581.278 524.144C580.414 521.554 578.256 524.144 577.393 520.69C576.529 517.237 576.098 513.352 576.098 513.352C576.098 513.352 582.141 511.194 581.278 500.834C580.414 490.474 584.731 484.858 590.774 485.721C596.818 486.585 602.861 487.448 602.861 487.448C602.861 487.448 608.041 489.175 613.653 485.29C619.264 481.405 620.128 479.246 620.128 479.246L619.696 477.088C619.696 477.088 605.015 471.476 603.289 470.181C601.562 468.886 595.519 463.275 595.519 463.275C595.519 463.275 579.112 463.275 575.227 467.16C571.342 471.045 565.73 480.541 560.114 482.704C557.999 483.517 555.004 484.025 551.87 484.291Z" fill="#FB8F8F"/>
<path d="M566.062 478.163C566.062 478.163 573.728 488.092 584.088 488.955L581.632 493.599C581.632 493.599 568.979 491.113 563.14 480.896L566.062 478.163Z" fill="url(#paint5_radial_3_6)"/>
<path d="M551.87 484.291C545.615 484.827 539.321 483.998 533.351 482.048C526.548 479.824 514.127 476.884 502.703 480.11C493.121 482.811 487.594 488.45 481.586 492.967C475.296 497.696 467.406 499.789 459.582 498.918L454.58 498.363C454.117 498.313 453.843 498.868 454.167 499.203C455.69 500.772 460.361 503.501 473.777 501.265C491.911 498.244 497.954 490.474 497.954 490.474C497.954 490.474 498.386 498.244 496.228 502.129C494.069 506.014 488.026 512.489 488.026 512.489L492.774 525.007C492.774 525.007 495.796 526.302 500.113 525.007L501.408 523.712C501.408 523.712 501.839 520.259 498.818 519.827C498.818 519.827 496.659 518.964 497.954 515.078C499.249 511.194 501.408 509.898 510.904 509.898C520.401 509.898 524.722 503.424 524.722 503.424C524.722 503.424 532.923 503.855 538.539 508.604C544.15 513.352 559.694 518.963 568.759 515.942C568.759 515.942 572.644 519.827 573.076 522.849C573.508 525.87 573.939 527.597 578.688 527.165C578.688 527.165 582.141 526.734 581.278 524.144C580.414 521.554 578.256 524.144 577.393 520.69C576.529 517.237 576.098 513.352 576.098 513.352C576.098 513.352 582.141 511.194 581.278 500.834C580.414 490.474 584.731 484.858 590.774 485.721C596.818 486.585 602.861 487.448 602.861 487.448C602.861 487.448 608.041 489.175 613.653 485.29C619.264 481.405 620.128 479.246 620.128 479.246L619.696 477.088C619.696 477.088 605.015 471.476 603.289 470.181C601.562 468.886 595.519 463.275 595.519 463.275C595.519 463.275 579.112 463.275 575.227 467.16C571.342 471.045 565.73 480.541 560.114 482.704C557.999 483.517 555.004 484.025 551.87 484.291Z" fill="url(#paint6_radial_3_6)"/>
<path d="M510.908 509.899C515.337 509.899 518.64 508.492 520.902 506.985C519.727 506.175 518.462 505.489 517.094 504.965C513.317 503.508 509.085 503.277 505.077 503.046C501.423 502.838 497.927 503 494.698 504.48C492.042 508.176 488.022 512.485 488.022 512.485L492.771 525.003C492.771 525.003 495.792 526.298 500.109 525.003L501.404 523.708C501.404 523.708 501.836 520.255 498.814 519.823C498.814 519.823 496.656 518.96 497.951 515.075C499.246 511.19 501.412 509.899 510.908 509.899Z" fill="url(#paint7_radial_3_6)"/>
<path d="M577.393 520.69C577.115 519.58 576.884 518.432 576.695 517.376C574.745 517.229 572.802 517.761 571.288 519.002C572.128 520.208 572.895 521.604 573.072 522.849C573.504 525.87 573.935 527.597 578.684 527.165C578.684 527.165 582.137 526.734 581.274 524.144C580.418 521.554 578.256 524.144 577.393 520.69Z" fill="url(#paint8_radial_3_6)"/>
<path d="M603.297 470.178C603.035 469.981 602.672 469.684 602.248 469.326C601.678 469.484 601.111 469.649 600.549 469.831C595.496 471.465 590.25 474.128 587.722 479.042C586.5 481.424 585.98 484.06 585.756 486.735C587.194 485.81 588.901 485.455 590.774 485.721C596.818 486.585 602.861 487.448 602.861 487.448C602.861 487.448 608.041 489.175 613.653 485.29C619.264 481.405 620.128 479.246 620.128 479.246L619.696 477.088C619.704 477.084 605.023 471.473 603.297 470.178Z" fill="url(#paint9_radial_3_6)"/>
<path d="M594.59 468.47C594.467 469.148 594.139 469.769 593.703 470.305C592.593 471.665 590.204 475.693 591.214 484.423C592.509 495.646 580.854 496.509 579.127 489.171C577.874 483.844 578.441 476.699 578.846 473.18C579.004 471.819 579.821 470.632 581.031 469.993C585.375 467.692 595.607 462.808 594.59 468.47Z" fill="url(#paint10_radial_3_6)"/>
<path d="M598.98 469.314H599.843L602.865 470.178L604.16 472.336L601.57 474.926L598.98 475.789C596.39 472.768 598.98 469.314 598.98 469.314Z" fill="url(#paint11_radial_3_6)"/>
<path d="M620.135 479.243L619.704 477.084C619.704 477.084 619.179 476.884 618.316 476.548C618.316 476.548 614.955 477.516 615.387 479.243C615.668 480.372 617.611 480.761 618.921 480.896C619.904 479.817 620.135 479.243 620.135 479.243Z" fill="url(#paint12_radial_3_6)"/>
<path d="M599.412 474.278C600.009 474.278 600.491 473.505 600.491 472.552C600.491 471.598 600.009 470.825 599.412 470.825C598.814 470.825 598.333 471.598 598.333 472.552C598.333 473.505 598.814 474.278 599.412 474.278Z" fill="url(#paint13_radial_3_6)"/>
<path d="M601.354 484.211C601.354 484.211 602.649 486.369 606.534 487.232" stroke="#0061FE" stroke-width="0.385417" stroke-miterlimit="10"/>
<path d="M593.8 483.563C592.166 479.832 592.081 475.593 593.8 470.174C593.765 470.216 593.738 470.266 593.704 470.309C592.594 471.669 590.204 475.697 591.214 484.426C591.268 484.904 591.291 485.355 591.302 485.795C592.713 485.995 594.112 486.195 595.426 486.384C594.571 485.305 594.062 484.157 593.8 483.563Z" fill="url(#paint14_radial_3_6)"/>
<path d="M568.759 515.942C566.601 513.352 566.601 511.625 566.601 511.625C567.896 506.445 566.601 504.719 566.601 504.719C566.601 509.035 564.443 511.194 564.443 511.194C564.443 511.194 553.651 515.51 545.014 506.445C536.381 497.38 535.517 496.517 535.517 496.517C529.474 496.517 524.726 503.424 524.726 503.424L525.196 503.462C527.007 503.635 533.725 504.53 538.543 508.604C544.151 513.352 559.694 518.963 568.759 515.942Z" fill="url(#paint15_radial_3_6)"/>
<path d="M611.772 481.94C612.331 481.94 612.331 481.073 611.772 481.073C611.217 481.073 611.213 481.94 611.772 481.94Z" fill="#0061FE"/>
<path d="M610.138 484.523C610.512 484.523 610.512 483.945 610.138 483.945C609.764 483.945 609.764 484.523 610.138 484.523Z" fill="#0061FE"/>
<path d="M608.719 482.669C609.093 482.669 609.093 482.091 608.719 482.091C608.349 482.091 608.346 482.669 608.719 482.669Z" fill="#0061FE"/>
<path d="M605.667 482.414C605.852 482.414 605.852 482.125 605.667 482.125C605.478 482.125 605.478 482.414 605.667 482.414Z" fill="#0061FE"/>
<path d="M612.099 483.725C612.284 483.725 612.284 483.436 612.099 483.436C611.914 483.436 611.914 483.725 612.099 483.725Z" fill="#0061FE"/>
<path d="M562.5 479.89C563.452 479.89 564.227 479.117 564.227 478.163C564.227 477.21 563.452 476.437 562.5 476.437C561.548 476.437 560.773 477.21 560.773 478.163C560.773 479.117 561.548 479.89 562.5 479.89Z" stroke="#0144B9" stroke-width="0.385417" stroke-miterlimit="10"/>
<path d="M563.907 479.165L564.508 479.72" stroke="#0144B9" stroke-width="0.385417" stroke-miterlimit="10"/>
<path d="M566.755 487.359C566.755 487.359 571.766 493.141 578.703 493.911" stroke="#0061FE" stroke-width="0.385417" stroke-miterlimit="10"/>
<path d="M590.266 484.276C590.266 484.276 590.651 489.672 587.953 491.599" stroke="#F1D23C" stroke-width="0.385417" stroke-miterlimit="10"/>
<path d="M510.099 508.557C510.099 508.557 519.349 508.557 523.203 503.161" stroke="#F1D23C" stroke-width="0.385417" stroke-miterlimit="10"/>
<path d="M540.932 508.557C540.932 508.557 547.87 513.953 556.349 514.724" stroke="#EECFF8" stroke-width="0.385417" stroke-miterlimit="10"/>
<path d="M496.031 277.885H437.062V312.958H496.031V277.885Z" stroke="#DEF4FF" stroke-width="0.385417" stroke-miterlimit="10"/>
<path d="M492.562 273.646H433.594V308.719H492.562V273.646Z" fill="url(#paint16_radial_3_6)"/>
<path d="M501.62 264.974C513.329 264.974 522.818 255.483 522.818 243.776C522.818 232.069 513.329 222.578 501.62 222.578C489.911 222.578 480.422 232.069 480.422 243.776C480.422 255.483 489.911 264.974 501.62 264.974Z" stroke="#0061FE" stroke-width="0.385417" stroke-miterlimit="10"/>
<path d="M506.245 264.974C517.954 264.974 527.443 255.483 527.443 243.776C527.443 232.069 517.954 222.578 506.245 222.578C494.536 222.578 485.047 232.069 485.047 243.776C485.047 255.483 494.536 264.974 506.245 264.974Z" fill="#DEF4FF"/>
<path d="M498.344 260.927H452.865V283.281H498.344V260.927Z" fill="#FFDE99"/>
<path d="M498.344 260.927H452.865V283.281H498.344V260.927Z" fill="url(#paint17_radial_3_6)"/>
<path d="M475.411 272.297L452.865 261.216V283.281H498.344V261.023L475.411 272.297Z" fill="url(#paint18_radial_3_6)"/>
<path d="M503.162 255.724H457.682V278.078H503.162V255.724Z" fill="#FFDE99"/>
<path d="M480.229 267.094L457.682 256.013V278.078H503.162V255.82L480.229 267.094Z" fill="url(#paint19_radial_3_6)"/>
<path d="M499.115 262.854H508.75" stroke="#0061FE" stroke-width="0.385417" stroke-miterlimit="10"/>
<path d="M499.115 264.974H508.75" stroke="#0061FE" stroke-width="0.385417" stroke-miterlimit="10"/>
<path d="M499.115 267.286H508.75" stroke="#0061FE" stroke-width="0.385417" stroke-miterlimit="10"/>
<path d="M472.906 288.677H421.26V292.917H472.906V288.677Z" fill="url(#paint20_radial_3_6)"/>
<path d="M472.906 295.229H421.26V299.469H472.906V295.229Z" fill="url(#paint21_radial_3_6)"/>
<path d="M506.245 243.803C508.8 243.803 510.87 241.732 510.87 239.178C510.87 236.624 508.8 234.553 506.245 234.553C503.69 234.553 501.62 236.624 501.62 239.178C501.62 241.732 503.69 243.803 506.245 243.803Z" fill="#0061FE"/>
<path d="M516.038 252.999C514.597 248.763 510.754 245.73 506.245 245.73C501.735 245.73 497.893 248.759 496.451 252.999H516.038Z" fill="#0061FE"/>
<path d="M565.406 281.74H528.406V273.26L524.552 265.167H528.406V256.688H565.406V281.74Z" fill="#0061FE"/>
<path d="M544.979 260.542H581.979V252.063L585.833 243.969H581.979V235.49H544.979V260.542Z" stroke="#0061FE" stroke-width="0.385417" stroke-miterlimit="10"/>
<path d="M547.87 239.536C548.51 239.536 549.026 239.019 549.026 238.38C549.026 237.742 548.51 237.224 547.87 237.224C547.23 237.224 546.714 237.742 546.714 238.38C546.714 239.019 547.23 239.536 547.87 239.536Z" stroke="#0061FE" stroke-width="0.385417" stroke-miterlimit="10"/>
<path d="M546.521 272.104C548.012 272.104 549.219 270.896 549.219 269.406C549.219 267.916 548.012 266.708 546.521 266.708C545.029 266.708 543.823 267.916 543.823 269.406C543.823 270.896 545.029 272.104 546.521 272.104Z" fill="white"/>
<path d="M537.271 272.104C538.762 272.104 539.969 270.896 539.969 269.406C539.969 267.916 538.762 266.708 537.271 266.708C535.779 266.708 534.573 267.916 534.573 269.406C534.573 270.896 535.779 272.104 537.271 272.104Z" fill="white"/>
<path d="M555.771 272.104C557.262 272.104 558.469 270.896 558.469 269.406C558.469 267.916 557.262 266.708 555.771 266.708C554.279 266.708 553.073 267.916 553.073 269.406C553.073 270.896 554.279 272.104 555.771 272.104Z" fill="white"/>
<path d="M545.222 300.733C541.626 298.644 537.178 298.675 533.609 300.818C530.044 302.957 525.597 302.991 521.997 300.902L521.712 300.737C518.116 298.648 513.668 298.679 510.099 300.822C506.534 302.961 502.086 302.995 498.486 300.906L498.201 300.741C494.605 298.652 490.158 298.682 486.589 300.825" stroke="#0061FE" stroke-width="0.385417" stroke-miterlimit="10"/>
<path d="M576.391 224.891C579.582 224.891 582.172 222.302 582.172 219.109C582.172 215.917 579.582 213.328 576.391 213.328C573.199 213.328 570.609 215.917 570.609 219.109C570.609 222.302 573.199 224.891 576.391 224.891Z" stroke="#FA404B" stroke-width="0.385417" stroke-miterlimit="10"/>
<path d="M561.552 283.667H566.948V278.271" stroke="#FA404B" stroke-width="0.385417" stroke-miterlimit="10"/>
<path d="M184.09 413.19C184.09 413.19 178.918 411.667 173.426 411.69C171.19 411.698 169.04 410.854 167.448 409.282C166.804 408.646 166.145 407.809 165.594 407.042C164.793 405.932 163.235 405.705 162.152 406.541C155.828 411.444 137.32 427.022 138.754 440.331C138.85 441.225 139.964 441.583 140.565 440.913C143.051 438.149 149.353 431.759 162.935 420.956C162.935 420.956 172.431 420.956 178.047 425.273C183.663 429.589 184.09 413.19 184.09 413.19Z" fill="#FFDE99"/>
<path d="M184.09 413.19C184.09 413.19 178.918 411.667 173.426 411.69C171.19 411.698 169.04 410.854 167.448 409.282C166.804 408.646 166.145 407.809 165.594 407.042C164.793 405.932 163.235 405.705 162.152 406.541C155.828 411.444 137.32 427.022 138.754 440.331C138.85 441.225 139.964 441.583 140.565 440.913C143.051 438.149 149.353 431.759 162.935 420.956C162.935 420.956 172.431 420.956 178.047 425.273C183.663 429.589 184.09 413.19 184.09 413.19Z" fill="url(#paint22_radial_3_6)"/>
<path d="M293.749 406.283C293.749 406.283 262.234 445.569 241.51 455.069C241.51 455.069 179.774 432.187 173.295 423.985C173.295 423.985 175.885 412.33 181.497 411.035C187.108 409.74 220.135 416 233.52 430.68C233.52 430.68 249.064 374.124 268.489 369.376C287.922 364.62 293.749 406.283 293.749 406.283Z" fill="#0144B9"/>
<path d="M293.749 406.283C293.749 406.283 262.234 445.569 241.51 455.069C241.51 455.069 179.774 432.187 173.295 423.985C173.295 423.985 175.885 412.33 181.497 411.035C187.108 409.74 220.135 416 233.52 430.68C233.52 430.68 249.064 374.124 268.489 369.376C287.922 364.62 293.749 406.283 293.749 406.283Z" fill="url(#paint23_radial_3_6)"/>
<path d="M384.411 514.215C384.411 514.215 391.317 520.69 394.339 525.87C395.326 527.558 395.942 528.834 396.328 529.79C397.804 533.44 402.109 535.101 405.57 533.228C406.954 532.48 428.472 521.754 437.382 507.278C437.787 506.622 437.159 505.67 436.45 505.967C430.171 508.604 423.685 510.766 415.059 514.215C404.792 518.324 399.084 509.898 393.904 503.423C388.727 496.945 384.411 514.215 384.411 514.215Z" fill="#FFDE99"/>
<path d="M384.411 514.215C384.411 514.215 391.317 520.69 394.339 525.87C395.326 527.558 395.942 528.834 396.328 529.79C397.804 533.44 402.109 535.101 405.57 533.228C406.954 532.48 428.472 521.754 437.382 507.278C437.787 506.622 437.159 505.67 436.45 505.967C430.171 508.604 423.685 510.766 415.059 514.215C404.792 518.324 399.084 509.898 393.904 503.423C388.727 496.945 384.411 514.215 384.411 514.215Z" fill="url(#paint24_radial_3_6)"/>
<path d="M304.109 362.245C304.109 362.245 347.284 433.05 363.255 452.907C379.231 472.768 396.929 503.42 396.929 503.42C396.929 503.42 385.706 518.964 382.68 517.669C379.659 516.374 380.522 515.942 380.09 513.352C379.659 510.762 319.649 447.731 309.285 430.46C298.925 413.19 295.904 411.895 295.904 411.895C295.904 411.895 259.208 399.376 257.482 375.199C255.755 351.022 277.774 349.727 277.774 349.727L304.109 362.245Z" fill="#0061FE"/>
<path d="M315.552 388.797L348.794 438.878" stroke="#DEF4FF" stroke-width="0.385417" stroke-miterlimit="10"/>
<path d="M349.01 463.271C332.603 452.911 329.15 438.23 315.336 417.506C308.911 407.867 300.991 401.5 294.358 397.442C285.12 391.791 280.622 380.823 283.339 370.339C284.777 364.789 286.565 359.258 288.176 354.668L277.778 349.723C277.778 349.723 276.853 349.777 275.4 350.07L275.188 350.155L263.625 356.029C259.771 359.775 256.811 365.733 257.485 375.195C259.212 399.373 295.908 411.891 295.908 411.891C295.908 411.891 298.929 413.186 309.289 430.456C319.649 447.727 379.662 510.758 380.094 513.348C380.526 515.938 379.662 516.37 382.684 517.665C384.133 518.285 387.475 515.028 390.558 511.471C382.549 499.955 361.995 471.472 349.01 463.271Z" fill="url(#paint25_radial_3_6)"/>
<path d="M349.01 463.271C332.603 452.911 329.15 438.23 315.336 417.506C301.523 396.783 280.799 391.171 280.799 391.171C279.45 381.998 284.326 365.645 288.176 354.668L277.778 349.723C277.778 349.723 276.853 349.777 275.4 350.07L275.188 350.155L263.625 356.029C259.771 359.775 256.811 365.733 257.485 375.195C259.212 399.373 295.908 411.891 295.908 411.891C295.908 411.891 298.929 413.186 309.289 430.456C319.649 447.727 379.662 510.758 380.094 513.348C380.526 515.938 379.662 516.37 382.684 517.665C384.133 518.285 387.475 515.028 390.558 511.471C382.549 499.955 361.995 471.472 349.01 463.271Z" fill="url(#paint26_radial_3_6)"/>
<path d="M419.919 362.839C419.919 362.839 437.082 361.382 439.672 362.245C439.672 362.245 440.104 360.95 436.65 359.224C433.197 357.497 426.722 358.36 426.722 358.36L418.52 358.792L419.919 362.839Z" fill="url(#paint27_radial_3_6)"/>
<path d="M335.197 356.202C335.197 356.202 334.334 358.36 337.355 360.087C340.377 361.814 362.396 367.857 396.07 365.267C396.07 365.267 413.772 362.245 416.362 363.109C416.362 363.109 425.858 352.317 427.153 352.317C428.448 352.317 422.405 350.159 415.498 358.36L403.412 360.519H388.731L383.12 358.792C383.12 358.792 361.101 353.612 346.856 342.817C332.603 332.025 335.197 356.202 335.197 356.202Z" fill="#FFDE99"/>
<path d="M335.197 356.202C335.197 356.202 334.334 358.36 337.355 360.087C340.377 361.814 362.396 367.857 396.07 365.267C396.07 365.267 413.772 362.245 416.362 363.109C416.362 363.109 425.858 352.317 427.153 352.317C428.448 352.317 422.405 350.159 415.498 358.36L403.412 360.519H388.731L383.12 358.792C383.12 358.792 361.101 353.612 346.856 342.817C332.603 332.025 335.197 356.202 335.197 356.202Z" fill="url(#paint28_radial_3_6)"/>
<path d="M339.945 295.761C339.945 295.761 345.557 331.593 344.694 336.342C344.694 336.342 347.715 335.047 348.579 336.342C349.442 337.637 348.579 339.795 348.579 339.795L350.737 342.817C350.737 342.817 337.355 358.36 335.193 358.36C333.744 358.36 331.516 355.246 330.206 353.2C329.662 352.348 329.566 351.273 330.017 350.371C330.252 349.901 330.445 349.261 330.445 348.432C330.445 346.274 325.265 338.072 324.401 313.032C323.538 287.987 339.945 295.761 339.945 295.761Z" fill="#F1D23C"/>
<path d="M339.945 295.761C339.945 295.761 345.557 331.593 344.694 336.342C344.694 336.342 347.715 335.047 348.579 336.342C349.442 337.637 348.579 339.795 348.579 339.795L350.737 342.817C350.737 342.817 337.355 358.36 335.193 358.36C333.744 358.36 331.516 355.246 330.206 353.2C329.662 352.348 329.566 351.273 330.017 350.371C330.252 349.901 330.445 349.261 330.445 348.432C330.445 346.274 325.265 338.072 324.401 313.032C323.538 287.987 339.945 295.761 339.945 295.761Z" fill="url(#paint29_radial_3_6)"/>
<path d="M336.492 298.783C336.492 298.783 323.769 338.908 318.358 349.727C315.336 355.77 309.293 362.245 309.293 362.245C302.818 363.54 286.843 355.77 286.843 355.77L304.113 314.754L336.492 298.783Z" fill="#FB8F8F"/>
<path d="M350.737 265.541C350.737 265.541 345.557 269.426 339.082 284.969L333.038 279.358L328.722 272.883L327.858 268.134C327.858 268.134 339.082 260.796 337.787 249.569C336.492 238.342 358.075 250.86 350.737 265.541Z" fill="#FFDE99"/>
<path d="M350.737 265.541C350.737 265.541 345.557 269.426 339.082 284.969L333.038 279.358L328.722 272.883L327.858 268.134C327.858 268.134 339.082 260.796 337.787 249.569C336.492 238.342 358.075 250.86 350.737 265.541Z" fill="url(#paint30_radial_3_6)"/>
<path d="M361.96 231.431C361.96 231.431 362.823 265.105 357.212 269.853C357.212 269.853 348.578 270.285 344.693 266.4C339.513 261.22 338.218 255.608 338.218 255.608V250.428L330.448 247.407L326.995 236.615L332.607 230.14L348.151 227.982L358.079 228.413L361.96 231.431Z" fill="#FFDE99"/>
<path d="M361.96 231.431C361.96 231.431 362.823 265.105 357.212 269.853C357.212 269.853 348.578 270.285 344.693 266.4C339.513 261.22 338.218 255.608 338.218 255.608V250.428L330.448 247.407L326.995 236.615L332.607 230.14L348.151 227.982L358.079 228.413L361.96 231.431Z" fill="url(#paint31_radial_3_6)"/>
<path d="M359.713 264.631C360.808 260.426 361.39 254.494 361.694 248.806C358.522 245.483 345.125 249.137 345.125 249.137V249.569L342.535 261.224L354.19 267.699L359.713 264.631Z" fill="url(#paint32_radial_3_6)"/>
<path d="M348.972 236.068C349.272 234.777 350.012 233.613 351.099 232.849C351.97 232.241 352.942 231.94 353.547 232.942C354.842 235.1 357.863 240.712 363.907 238.122C369.95 235.532 366.065 226.899 366.065 226.899C366.065 226.899 369.087 230.784 367.792 233.374C367.792 233.374 373.835 227.762 368.223 219.125C362.612 210.488 354.842 224.305 352.248 219.125C349.654 213.945 345.341 210.923 341.456 214.376C337.571 217.83 338.003 219.125 338.003 219.125C338.003 219.125 338.866 215.671 335.413 216.103C331.959 216.535 330.233 217.83 325.916 216.535C321.599 215.24 312.099 217.398 317.283 231.647C322.463 245.896 328.506 246.328 327.211 248.918C325.916 251.508 323.758 256.688 331.096 256.256C338.434 255.824 337.737 253.546 337.737 253.546L338.434 250.644C338.434 250.644 331.959 248.486 335.844 243.306C339.729 238.126 341.888 243.306 341.888 243.306C341.888 243.306 346.204 239.421 347.931 234.241C347.931 234.241 346.204 241.148 344.046 242.874C344.046 242.874 347.731 241.398 348.972 236.068Z" fill="#241921"/>
<path d="M348.972 236.068C349.272 234.777 350.012 233.613 351.099 232.849C351.97 232.241 352.942 231.94 353.547 232.942C354.842 235.1 357.863 240.712 363.907 238.122C369.95 235.532 366.065 226.899 366.065 226.899C366.065 226.899 369.087 230.784 367.792 233.374C367.792 233.374 373.835 227.762 368.223 219.125C362.612 210.488 354.842 224.305 352.248 219.125C349.654 213.945 345.341 210.923 341.456 214.376C337.571 217.83 338.003 219.125 338.003 219.125C338.003 219.125 338.866 215.671 335.413 216.103C331.959 216.535 330.233 217.83 325.916 216.535C321.599 215.24 312.099 217.398 317.283 231.647C322.463 245.896 328.506 246.328 327.211 248.918C325.916 251.508 323.758 256.688 331.096 256.256C338.434 255.824 337.737 253.546 337.737 253.546L338.434 250.644C338.434 250.644 331.959 248.486 335.844 243.306C339.729 238.126 341.888 243.306 341.888 243.306C341.888 243.306 346.204 239.421 347.931 234.241C347.931 234.241 346.204 241.148 344.046 242.874C344.046 242.874 347.731 241.398 348.972 236.068Z" fill="url(#paint33_radial_3_6)"/>
<path d="M341.24 277.627C341.24 277.627 334.765 274.606 332.175 267.267C329.585 259.929 323.11 259.066 323.11 259.066C323.11 259.066 321.384 258.634 322.247 262.087C323.11 265.541 320.952 271.152 312.75 272.447C304.549 273.742 251.014 283.671 243.672 296.624C243.672 296.624 241.514 291.013 240.65 297.488V302.236C240.65 302.236 238.06 298.351 237.629 302.236C237.197 306.121 239.787 306.553 239.787 306.553L241.082 305.258C241.082 305.258 258.353 313.459 256.626 318.639C256.626 318.639 259.216 320.798 259.648 315.186C259.648 315.186 260.079 316.913 263.533 315.618L263.964 313.459C263.964 313.459 276.051 311.301 282.961 310.869C282.961 310.869 268.713 331.593 263.533 334.615C258.353 337.637 228.995 360.519 228.995 360.519L189.702 383.401C189.702 383.401 206.973 409.305 210.426 409.736L216.901 405.851C216.901 405.851 223.376 409.736 227.261 416.643C231.146 423.55 240.643 433.482 258.345 432.619C258.345 432.619 254.46 411.895 275.615 374.768C296.771 337.64 326.128 318.639 336.924 302.668C347.715 286.692 346.852 279.354 346.852 279.354L341.24 277.627Z" fill="#F1D23C"/>
<path d="M341.24 277.627C341.24 277.627 334.765 274.606 332.175 267.267C329.585 259.929 323.11 259.066 323.11 259.066C323.11 259.066 321.384 258.634 322.247 262.087C323.11 265.541 320.952 271.152 312.75 272.447C304.549 273.742 251.014 283.671 243.672 296.624C243.672 296.624 241.514 291.013 240.65 297.488V302.236C240.65 302.236 238.06 298.351 237.629 302.236C237.197 306.121 239.787 306.984 239.787 306.984L240.65 305.689C240.65 305.689 258.353 313.459 256.626 318.639C256.626 318.639 259.216 320.798 259.648 315.186C259.648 315.186 260.079 316.913 263.533 315.618L263.964 313.459C263.964 313.459 276.051 311.301 282.961 310.869C282.961 310.869 268.713 331.593 263.533 334.615C258.353 337.637 228.995 360.519 228.995 360.519L189.702 383.401C189.702 383.401 206.973 409.305 210.426 409.736L216.901 405.851C216.901 405.851 223.376 409.736 227.261 416.643C231.146 423.55 240.643 433.482 258.345 432.619C258.345 432.619 254.46 411.895 275.615 374.768C296.771 337.64 326.128 318.639 336.924 302.668C347.715 286.692 346.852 279.354 346.852 279.354L341.24 277.627Z" fill="url(#paint34_radial_3_6)"/>
<path d="M346.852 279.354L341.241 277.627C341.241 277.627 334.766 274.606 332.176 267.267C329.586 259.929 323.111 259.066 323.111 259.066C323.111 259.066 321.384 258.634 322.247 262.087C323.111 265.541 320.952 271.152 312.751 272.447C310.85 272.748 306.522 273.511 300.903 274.667C301.061 277.666 301.277 280.664 301.57 283.655C303.084 299.176 306.792 314.161 312.662 328.294C322.96 318.107 331.933 310.064 336.932 302.668C347.716 286.692 346.852 279.354 346.852 279.354Z" fill="url(#paint35_radial_3_6)"/>
<path d="M155.813 356.418C155.813 356.418 204.599 346.058 244.316 369.368C250.132 372.783 299.145 420.744 406.214 450.101C449.492 461.968 560.773 477.732 560.773 477.732" stroke="#0144B9" stroke-width="0.385417" stroke-miterlimit="10"/>
<path d="M256.622 319.071C256.622 319.071 239.552 346.636 235.998 355.52C235.998 355.52 241.945 358.792 243.24 360.519C244.535 362.245 247.125 368.72 251.442 370.447C251.442 370.447 248.42 373.037 246.262 371.31C244.104 369.584 244.104 369.584 244.104 369.584L246.262 372.174C246.262 372.174 243.672 375.627 241.945 375.195C240.219 374.764 240.65 375.627 238.492 375.195C236.334 374.764 235.039 373.469 235.039 373.469C235.039 373.469 235.039 374.764 233.744 374.332C232.745 374.001 228.429 369.167 226.49 366.554C225.889 365.745 225.689 364.704 225.943 363.729L228.132 355.335C228.132 355.335 230.722 320.366 240.65 305.686C240.647 305.689 259.644 311.733 256.622 319.071Z" fill="#FFDE99"/>
<path d="M256.622 319.071C256.622 319.071 239.552 346.636 235.998 355.52C235.998 355.52 241.945 358.792 243.24 360.519C244.535 362.245 247.125 368.72 251.442 370.447C251.442 370.447 248.42 373.037 246.262 371.31C244.104 369.584 244.104 369.584 244.104 369.584L246.262 372.174C246.262 372.174 243.672 375.627 241.945 375.195C240.219 374.764 240.65 375.627 238.492 375.195C236.334 374.764 235.039 373.469 235.039 373.469C235.039 373.469 235.039 374.764 233.744 374.332C232.745 374.001 228.429 369.167 226.49 366.554C225.889 365.745 225.689 364.704 225.943 363.729L228.132 355.335C228.132 355.335 230.722 320.366 240.65 305.686C240.647 305.689 259.644 311.733 256.622 319.071Z" fill="url(#paint36_radial_3_6)"/>
<path d="M448.983 360.634H348.205C347.395 360.634 346.74 359.979 346.74 359.17V358.819C346.74 358.01 347.395 357.354 348.205 357.354H448.983C449.793 357.354 450.448 358.01 450.448 358.819V359.17C450.448 359.975 449.793 360.634 448.983 360.634Z" fill="#241921"/>
<path d="M448.983 360.634H389.251C388.442 360.634 387.787 359.979 387.787 359.17V358.819C387.787 358.01 388.442 357.354 389.251 357.354H448.983C449.793 357.354 450.448 358.01 450.448 358.819V359.17C450.448 359.975 449.793 360.634 448.983 360.634Z" fill="#0061FE"/>
<path d="M464.604 305.905H405.805C405.011 305.905 404.31 306.414 404.063 307.166L388.581 354.117C388.188 355.304 389.074 356.53 390.323 356.53H449.122C449.916 356.53 450.618 356.021 450.864 355.269L466.347 308.318C466.74 307.127 465.853 305.905 464.604 305.905Z" fill="#0061FE"/>
<path d="M380.88 359.813H376.082C375.743 359.813 375.473 359.54 375.473 359.204V359.058C375.473 358.719 375.747 358.449 376.082 358.449H380.88C381.219 358.449 381.489 358.723 381.489 359.058V359.204C381.493 359.54 381.219 359.813 380.88 359.813Z" stroke="#0061FE" stroke-width="0.385417" stroke-miterlimit="10"/>
<path d="M446.417 359.948H441.618C441.279 359.948 441.009 359.675 441.009 359.339V359.193C441.009 358.854 441.283 358.584 441.618 358.584H446.417C446.756 358.584 447.026 358.858 447.026 359.193V359.339C447.029 359.675 446.756 359.948 446.417 359.948Z" stroke="#0061FE" stroke-width="0.385417" stroke-miterlimit="10"/>
<path d="M370.894 359.948H366.096C365.757 359.948 365.487 359.675 365.487 359.339V359.193C365.487 358.854 365.76 358.584 366.096 358.584H370.894C371.233 358.584 371.503 358.858 371.503 359.193V359.339C371.503 359.675 371.23 359.948 370.894 359.948Z" stroke="#0061FE" stroke-width="0.385417" stroke-miterlimit="10"/>
<path d="M384.576 359.948H384.43C384.091 359.948 383.821 359.675 383.821 359.339V359.193C383.821 358.854 384.095 358.584 384.43 358.584H384.576C384.916 358.584 385.185 358.858 385.185 359.193V359.339C385.185 359.675 384.912 359.948 384.576 359.948Z" stroke="#0061FE" stroke-width="0.385417" stroke-miterlimit="10"/>
<path d="M465.683 306.256C465.383 306.036 465.013 305.905 464.604 305.905H405.805C405.011 305.905 404.31 306.414 404.063 307.166L388.762 353.566L465.683 306.256Z" fill="url(#paint37_linear_3_6)"/>
<path d="M455.801 309.49L437.193 320.983" stroke="white" stroke-width="0.385417" stroke-miterlimit="10"/>
<path d="M413.768 363.54L423.847 362.392C423.847 362.392 430.41 354.815 433.744 353.566C433.744 353.566 431.466 351.454 426.286 355.77C421.106 360.087 421.538 359.655 421.538 359.655H415.926L413.768 363.54Z" fill="#FFDE99"/>
<path d="M413.768 363.54L423.847 362.392C423.847 362.392 430.41 354.815 433.744 353.566C433.744 353.566 431.466 351.454 426.286 355.77C421.106 360.087 421.538 359.655 421.538 359.655H415.926L413.768 363.54Z" fill="url(#paint38_radial_3_6)"/>
<path d="M415.495 358.36L403.408 360.519H403.327C401.103 360.519 398.902 360.947 396.817 361.721C393.121 363.097 386.48 364.458 385.178 365.83C388.654 365.737 392.285 365.556 396.066 365.267C396.066 365.267 412.041 363.972 416.358 363.109C416.358 363.109 425.855 352.317 427.15 352.317C428.445 352.317 422.405 350.159 415.495 358.36Z" fill="#FFDE99"/>
<path d="M216.901 405.851C216.901 405.851 210.858 400.671 210.426 404.125C209.994 407.578 211.289 409.305 210.426 409.736L216.901 405.851Z" fill="url(#paint39_radial_3_6)"/>
<path d="M211.274 402.938L211.301 402.972C213.085 402.583 216.897 405.851 216.897 405.851C216.897 405.851 223.372 409.736 227.257 416.643C228.036 418.031 229.049 419.538 230.302 421.06L257.52 369.588L211.274 402.938Z" fill="url(#paint40_radial_3_6)"/>
<path d="M246.259 372.174L244.459 370.015C244.459 370.015 241.51 367.425 241.51 364.835C241.51 362.712 232.8 367.553 226.807 366.982C228.865 369.661 232.792 374.02 233.736 374.336C235.031 374.768 235.031 373.473 235.031 373.473C235.031 373.473 236.326 374.768 238.485 375.199C240.643 375.631 240.211 374.768 241.938 375.199C243.669 375.631 246.259 372.174 246.259 372.174Z" fill="url(#paint41_radial_3_6)"/>
<path d="M341.025 281.296C341.025 281.296 340.161 295.977 314.651 319.194" stroke="white" stroke-width="0.385417" stroke-miterlimit="10"/>
<path d="M347.499 229.489C347.499 229.489 346.204 236.395 341.024 239.849" stroke="#0061FE" stroke-width="0.385417" stroke-miterlimit="10"/>
<path d="M344.478 231.215C344.478 231.215 342.319 236.827 334.118 240.712" stroke="#0061FE" stroke-width="0.385417" stroke-miterlimit="10"/>
<path d="M394.775 502.125C394.775 502.125 389.595 511.19 383.12 515.075" stroke="#DEF4FF" stroke-width="0.385417" stroke-miterlimit="10"/>
<path d="M176.104 423.766C176.104 423.766 177.195 416.504 182.048 413.013" stroke="#DEF4FF" stroke-width="0.385417" stroke-miterlimit="10"/>
<path d="M77.2105 443.599C75.2911 446.131 75.3682 449.982 77.3916 452.433C79.7273 455.262 83.9668 456.013 86.1714 458.943C87.8518 461.174 87.9251 464.485 86.3449 466.79" stroke="#0061FE" stroke-width="0.385417" stroke-miterlimit="10"/>
<path d="M629.385 426.464C630.981 426.464 632.276 425.169 632.276 423.573C632.276 421.977 630.981 420.682 629.385 420.682C627.79 420.682 626.495 421.977 626.495 423.573C626.495 425.169 627.79 426.464 629.385 426.464Z" stroke="#0061FE" stroke-width="0.385417" stroke-miterlimit="10"/>
<path d="M127.578 310.786L123.856 311.787L124.858 315.509L128.58 314.507L127.578 310.786Z" stroke="#FA404B" stroke-width="0.385417" stroke-miterlimit="10"/>
<path d="M433.401 402.182C433.401 402.182 447.276 386.766 467.318 395.245" stroke="#FA404B" stroke-width="0.385417" stroke-miterlimit="10"/>
<path d="M158.984 458.453L152.818 467.703" stroke="#FA404B" stroke-width="0.385417" stroke-miterlimit="10"/>
<path d="M210.63 226.047L216.411 230.286" stroke="#FA404B" stroke-width="0.385417" stroke-miterlimit="10"/>
<path d="M579.99 367.132C584.465 368.212 589.522 366.138 591.954 362.226C592.844 360.792 593.399 359.166 594.297 357.732C595.954 355.092 598.802 353.23 601.886 352.772" stroke="#0061FE" stroke-width="0.385417" stroke-miterlimit="10"/>
</g>
<defs>
<radialGradient id="paint0_radial_3_6" cx="0" cy="0" r="1" gradientUnits="userSpaceOnUse" gradientTransform="translate(333.613 241.218) scale(389.101)">
<stop stop-color="#EECFF8"/>
<stop offset="0.9011" stop-color="white" stop-opacity="0"/>
</radialGradient>
<radialGradient id="paint1_radial_3_6" cx="0" cy="0" r="1" gradientUnits="userSpaceOnUse" gradientTransform="translate(601.358 532.933) scale(49.7762)">
<stop offset="0.3231" stop-color="#C184A8" stop-opacity="0.2102"/>
<stop offset="0.9171" stop-color="#0061FE"/>
</radialGradient>
<radialGradient id="paint2_radial_3_6" cx="0" cy="0" r="1" gradientUnits="userSpaceOnUse" gradientTransform="translate(597.269 521.971) scale(21.1174)">
<stop offset="0.1043" stop-color="#FFDE99"/>
<stop offset="0.1056" stop-color="#FFDE99" stop-opacity="0.9985"/>
<stop offset="0.268" stop-color="#E9BD9E" stop-opacity="0.8173"/>
<stop offset="0.4348" stop-color="#D7A4A3" stop-opacity="0.6311"/>
<stop offset="0.6085" stop-color="#CB92A6" stop-opacity="0.4371"/>
<stop offset="0.7917" stop-color="#C387A7" stop-opacity="0.2326"/>
<stop offset="1" stop-color="#C184A8" stop-opacity="0"/>
</radialGradient>
<radialGradient id="paint3_radial_3_6" cx="0" cy="0" r="1" gradientUnits="userSpaceOnUse" gradientTransform="translate(526.81 545.858) scale(55.273)">
<stop offset="0.3231" stop-color="#C184A8" stop-opacity="0.2102"/>
<stop offset="0.9171" stop-color="#0061FE"/>
</radialGradient>
<radialGradient id="paint4_radial_3_6" cx="0" cy="0" r="1" gradientUnits="userSpaceOnUse" gradientTransform="translate(528.391 531.624) scale(35.7736)">
<stop offset="0.1043" stop-color="#FFDE99"/>
<stop offset="0.1056" stop-color="#FFDE99" stop-opacity="0.9985"/>
<stop offset="0.268" stop-color="#E9BD9E" stop-opacity="0.8173"/>
<stop offset="0.4348" stop-color="#D7A4A3" stop-opacity="0.6311"/>
<stop offset="0.6085" stop-color="#CB92A6" stop-opacity="0.4371"/>
<stop offset="0.7917" stop-color="#C387A7" stop-opacity="0.2326"/>
<stop offset="1" stop-color="#C184A8" stop-opacity="0"/>
</radialGradient>
<radialGradient id="paint5_radial_3_6" cx="0" cy="0" r="1" gradientUnits="userSpaceOnUse" gradientTransform="translate(574.444 468.882) scale(29.5373)">
<stop offset="0.3231" stop-color="#C184A8" stop-opacity="0.2102"/>
<stop offset="0.9171" stop-color="#0061FE"/>
</radialGradient>
<radialGradient id="paint6_radial_3_6" cx="0" cy="0" r="1" gradientUnits="userSpaceOnUse" gradientTransform="translate(558.546 509.519) rotate(-12.7855) scale(170.166 62.1739)">
<stop offset="0.3231" stop-color="#C184A8" stop-opacity="0.2102"/>
<stop offset="0.9171" stop-color="#0061FE"/>
</radialGradient>
<radialGradient id="paint7_radial_3_6" cx="0" cy="0" r="1" gradientUnits="userSpaceOnUse" gradientTransform="translate(499.269 529.824) scale(34.1773)">
<stop offset="0.1043" stop-color="#FFDE99"/>
<stop offset="0.1056" stop-color="#FFDE99" stop-opacity="0.9985"/>
<stop offset="0.268" stop-color="#E9BD9E" stop-opacity="0.8173"/>
<stop offset="0.4348" stop-color="#D7A4A3" stop-opacity="0.6311"/>
<stop offset="0.6085" stop-color="#CB92A6" stop-opacity="0.4371"/>
<stop offset="0.7917" stop-color="#C387A7" stop-opacity="0.2326"/>
<stop offset="1" stop-color="#C184A8" stop-opacity="0"/>
</radialGradient>
<radialGradient id="paint8_radial_3_6" cx="0" cy="0" r="1" gradientUnits="userSpaceOnUse" gradientTransform="translate(575.674 530.315) scale(21.4095)">
<stop offset="0.1043" stop-color="#FFDE99"/>
<stop offset="0.1056" stop-color="#FFDE99" stop-opacity="0.9985"/>
<stop offset="0.268" stop-color="#E9BD9E" stop-opacity="0.8173"/>
<stop offset="0.4348" stop-color="#D7A4A3" stop-opacity="0.6311"/>
<stop offset="0.6085" stop-color="#CB92A6" stop-opacity="0.4371"/>
<stop offset="0.7917" stop-color="#C387A7" stop-opacity="0.2326"/>
<stop offset="1" stop-color="#C184A8" stop-opacity="0"/>
</radialGradient>
<radialGradient id="paint9_radial_3_6" cx="0" cy="0" r="1" gradientUnits="userSpaceOnUse" gradientTransform="translate(603.944 489.15) rotate(-17.4873) scale(49.4963 33.3164)">
<stop offset="0.1043" stop-color="#FFDE99"/>
<stop offset="0.1056" stop-color="#FFDE99" stop-opacity="0.9985"/>
<stop offset="0.268" stop-color="#E9BD9E" stop-opacity="0.8173"/>
<stop offset="0.4348" stop-color="#D7A4A3" stop-opacity="0.6311"/>
<stop offset="0.6085" stop-color="#CB92A6" stop-opacity="0.4371"/>
<stop offset="0.7917" stop-color="#C387A7" stop-opacity="0.2326"/>
<stop offset="1" stop-color="#C184A8" stop-opacity="0"/>
</radialGradient>
<radialGradient id="paint10_radial_3_6" cx="0" cy="0" r="1" gradientUnits="userSpaceOnUse" gradientTransform="translate(582.869 497.431) scale(26.9334)">
<stop stop-color="#0061FE"/>
<stop offset="0.0175" stop-color="#1B66F2"/>
<stop offset="0.0482" stop-color="#466EDF"/>
<stop offset="0.0825" stop-color="#6C75CE"/>
<stop offset="0.1196" stop-color="#8D7BBF"/>
<stop offset="0.1604" stop-color="#A980B3"/>
<stop offset="0.2062" stop-color="#C084A9"/>
<stop offset="0.2592" stop-color="#D187A1"/>
<stop offset="0.3238" stop-color="#DD899C"/>
<stop offset="0.4126" stop-color="#E48B99"/>
<stop offset="0.639" stop-color="#E68B98"/>
<stop offset="1" stop-color="#FB8F8F" stop-opacity="0"/>
</radialGradient>
<radialGradient id="paint11_radial_3_6" cx="0" cy="0" r="1" gradientUnits="userSpaceOnUse" gradientTransform="translate(596.818 472.277) scale(7.22501)">
<stop stop-color="#0144B9"/>
<stop offset="0.0286" stop-color="#0C47B7" stop-opacity="0.9606"/>
<stop offset="0.2403" stop-color="#5C5FAA" stop-opacity="0.6686"/>
<stop offset="0.3908" stop-color="#8E6EA1" stop-opacity="0.4611"/>
<stop offset="0.4648" stop-color="#A1749E" stop-opacity="0.3591"/>
<stop offset="0.4868" stop-color="#A7769D" stop-opacity="0.3443"/>
<stop offset="0.6368" stop-color="#CB8197" stop-opacity="0.2437"/>
<stop offset="0.7768" stop-color="#E68993" stop-opacity="0.1497"/>
<stop offset="0.9021" stop-color="#F58D90" stop-opacity="0.0657"/>
<stop offset="1" stop-color="#FB8F8F" stop-opacity="0"/>
</radialGradient>
<radialGradient id="paint12_radial_3_6" cx="0" cy="0" r="1" gradientUnits="userSpaceOnUse" gradientTransform="translate(627.477 495.25) scale(22.0834)">
<stop offset="0.3176" stop-color="#FB8F8F" stop-opacity="0"/>
<stop offset="0.3846" stop-color="#F58D90" stop-opacity="0.0982"/>
<stop offset="0.4703" stop-color="#E58993" stop-opacity="0.2238"/>
<stop offset="0.5662" stop-color="#CB8197" stop-opacity="0.3644"/>
<stop offset="0.6696" stop-color="#A6769D" stop-opacity="0.5158"/>
<stop offset="0.779" stop-color="#7768A5" stop-opacity="0.6762"/>
<stop offset="0.8915" stop-color="#3F57AF" stop-opacity="0.8411"/>
<stop offset="1" stop-color="#0144B9"/>
</radialGradient>
<radialGradient id="paint13_radial_3_6" cx="0" cy="0" r="1" gradientUnits="userSpaceOnUse" gradientTransform="translate(598.741 481.48) scale(9.58542 9.58557)">
<stop offset="0.3176" stop-color="#FB8F8F" stop-opacity="0"/>
<stop offset="0.3846" stop-color="#F58D90" stop-opacity="0.0982"/>
<stop offset="0.4703" stop-color="#E58993" stop-opacity="0.2238"/>
<stop offset="0.5662" stop-color="#CB8197" stop-opacity="0.3644"/>
<stop offset="0.6696" stop-color="#A6769D" stop-opacity="0.5158"/>
<stop offset="0.779" stop-color="#7768A5" stop-opacity="0.6762"/>
<stop offset="0.8915" stop-color="#3F57AF" stop-opacity="0.8411"/>
<stop offset="1" stop-color="#0144B9"/>
</radialGradient>
<radialGradient id="paint14_radial_3_6" cx="0" cy="0" r="1" gradientUnits="userSpaceOnUse" gradientTransform="translate(595.854 478.43) rotate(102.088) scale(11.7789 6.22196)">
<stop offset="0.3176" stop-color="#FB8F8F" stop-opacity="0"/>
<stop offset="0.3846" stop-color="#F58D90" stop-opacity="0.0982"/>
<stop offset="0.4703" stop-color="#E58993" stop-opacity="0.2238"/>
<stop offset="0.5662" stop-color="#CB8197" stop-opacity="0.3644"/>
<stop offset="0.6696" stop-color="#A6769D" stop-opacity="0.5158"/>
<stop offset="0.779" stop-color="#7768A5" stop-opacity="0.6762"/>
<stop offset="0.8915" stop-color="#3F57AF" stop-opacity="0.8411"/>
<stop offset="1" stop-color="#0144B9"/>
</radialGradient>
<radialGradient id="paint15_radial_3_6" cx="0" cy="0" r="1" gradientUnits="userSpaceOnUse" gradientTransform="translate(537.39 528.733) scale(57.6699)">
<stop offset="0.3231" stop-color="#C184A8" stop-opacity="0.2102"/>
<stop offset="0.9171" stop-color="#0061FE"/>
</radialGradient>
<radialGradient id="paint16_radial_3_6" cx="0" cy="0" r="1" gradientUnits="userSpaceOnUse" gradientTransform="translate(465.352 238.589) scale(160.667)">
<stop stop-color="#0061FE"/>
<stop offset="0.0281" stop-color="#106CFE" stop-opacity="0.9719"/>
<stop offset="0.1219" stop-color="#408BFE" stop-opacity="0.8781"/>
<stop offset="0.2211" stop-color="#6AA7FE" stop-opacity="0.7789"/>
<stop offset="0.3241" stop-color="#8EBFFF" stop-opacity="0.6759"/>
<stop offset="0.4318" stop-color="#ABD2FF" stop-opacity="0.5682"/>
<stop offset="0.546" stop-color="#C2E1FF" stop-opacity="0.454"/>
<stop offset="0.6696" stop-color="#D2ECFF" stop-opacity="0.3304"/>
<stop offset="0.8094" stop-color="#DBF2FF" stop-opacity="0.1906"/>
<stop offset="1" stop-color="#DEF4FF" stop-opacity="0"/>
</radialGradient>
<radialGradient id="paint17_radial_3_6" cx="0" cy="0" r="1" gradientUnits="userSpaceOnUse" gradientTransform="translate(468.081 257.483) scale(32.7946)">
<stop stop-color="#FB8F8F"/>
<stop offset="1" stop-color="#F9C1DA" stop-opacity="0"/>
</radialGradient>
<radialGradient id="paint18_radial_3_6" cx="0" cy="0" r="1" gradientUnits="userSpaceOnUse" gradientTransform="translate(472.367 247.316) scale(50.5825)">
<stop stop-color="#FB8F8F"/>
<stop offset="1" stop-color="#F9C1DA" stop-opacity="0"/>
</radialGradient>
<radialGradient id="paint19_radial_3_6" cx="0" cy="0" r="1" gradientUnits="userSpaceOnUse" gradientTransform="translate(477.184 242.113) scale(50.5825)">
<stop stop-color="#FB8F8F"/>
<stop offset="1" stop-color="#F9C1DA" stop-opacity="0"/>
</radialGradient>
<radialGradient id="paint20_radial_3_6" cx="0" cy="0" r="1" gradientUnits="userSpaceOnUse" gradientTransform="translate(465.51 280.648) scale(119.008 78.1556)">
<stop stop-color="#0061FE"/>
<stop offset="0.0281" stop-color="#106CFE" stop-opacity="0.9719"/>
<stop offset="0.1219" stop-color="#408BFE" stop-opacity="0.8781"/>
<stop offset="0.2211" stop-color="#6AA7FE" stop-opacity="0.7789"/>
<stop offset="0.3241" stop-color="#8EBFFF" stop-opacity="0.6759"/>
<stop offset="0.4318" stop-color="#ABD2FF" stop-opacity="0.5682"/>
<stop offset="0.546" stop-color="#C2E1FF" stop-opacity="0.454"/>
<stop offset="0.6696" stop-color="#D2ECFF" stop-opacity="0.3304"/>
<stop offset="0.8094" stop-color="#DBF2FF" stop-opacity="0.1906"/>
<stop offset="1" stop-color="#DEF4FF" stop-opacity="0"/>
</radialGradient>
<radialGradient id="paint21_radial_3_6" cx="0" cy="0" r="1" gradientUnits="userSpaceOnUse" gradientTransform="translate(465.51 287.2) scale(119.008 78.1556)">
<stop stop-color="#0061FE"/>
<stop offset="0.0281" stop-color="#106CFE" stop-opacity="0.9719"/>
<stop offset="0.1219" stop-color="#408BFE" stop-opacity="0.8781"/>
<stop offset="0.2211" stop-color="#6AA7FE" stop-opacity="0.7789"/>
<stop offset="0.3241" stop-color="#8EBFFF" stop-opacity="0.6759"/>
<stop offset="0.4318" stop-color="#ABD2FF" stop-opacity="0.5682"/>
<stop offset="0.546" stop-color="#C2E1FF" stop-opacity="0.454"/>
<stop offset="0.6696" stop-color="#D2ECFF" stop-opacity="0.3304"/>
<stop offset="0.8094" stop-color="#DBF2FF" stop-opacity="0.1906"/>
<stop offset="1" stop-color="#DEF4FF" stop-opacity="0"/>
</radialGradient>
<radialGradient id="paint22_radial_3_6" cx="0" cy="0" r="1" gradientUnits="userSpaceOnUse" gradientTransform="translate(166.776 394.471) scale(53.7383)">
<stop stop-color="#FA404B"/>
<stop offset="0.025" stop-color="#FA484F" stop-opacity="0.975"/>
<stop offset="0.1916" stop-color="#FC7565" stop-opacity="0.8084"/>
<stop offset="0.3589" stop-color="#FD9B78" stop-opacity="0.6411"/>
<stop offset="0.5244" stop-color="#FEB886" stop-opacity="0.4756"/>
<stop offset="0.6876" stop-color="#FECD91" stop-opacity="0.3124"/>
<stop offset="0.8474" stop-color="#FFDA97" stop-opacity="0.1526"/>
<stop offset="1" stop-color="#FFDE99" stop-opacity="0"/>
</radialGradient>
<radialGradient id="paint23_radial_3_6" cx="0" cy="0" r="1" gradientUnits="userSpaceOnUse" gradientTransform="translate(251.085 378.329) scale(102.143)">
<stop offset="0.00534759" stop-color="#241921"/>
<stop offset="1" stop-color="#0061FE" stop-opacity="0"/>
</radialGradient>
<radialGradient id="paint24_radial_3_6" cx="0" cy="0" r="1" gradientUnits="userSpaceOnUse" gradientTransform="translate(382.294 519.681) scale(36.4914)">
<stop stop-color="#FA404B"/>
<stop offset="0.025" stop-color="#FA484F" stop-opacity="0.975"/>
<stop offset="0.1916" stop-color="#FC7565" stop-opacity="0.8084"/>
<stop offset="0.3589" stop-color="#FD9B78" stop-opacity="0.6411"/>
<stop offset="0.5244" stop-color="#FEB886" stop-opacity="0.4756"/>
<stop offset="0.6876" stop-color="#FECD91" stop-opacity="0.3124"/>
<stop offset="0.8474" stop-color="#FFDA97" stop-opacity="0.1526"/>
<stop offset="1" stop-color="#FFDE99" stop-opacity="0"/>
</radialGradient>
<radialGradient id="paint25_radial_3_6" cx="0" cy="0" r="1" gradientUnits="userSpaceOnUse" gradientTransform="translate(204.295 332.193) scale(176.629)">
<stop offset="0.00534759" stop-color="#241921"/>
<stop offset="1" stop-color="#0061FE" stop-opacity="0"/>
</radialGradient>
<radialGradient id="paint26_radial_3_6" cx="0" cy="0" r="1" gradientUnits="userSpaceOnUse" gradientTransform="translate(323.07 535.714) scale(108.216)">
<stop offset="0.00534759" stop-color="#241921"/>
<stop offset="1" stop-color="#0061FE" stop-opacity="0"/>
</radialGradient>
<radialGradient id="paint27_radial_3_6" cx="0" cy="0" r="1" gradientUnits="userSpaceOnUse" gradientTransform="translate(417.961 356.57) scale(23.1785)">
<stop stop-color="#FA404B"/>
<stop offset="0.025" stop-color="#FA484F"/>
<stop offset="0.1916" stop-color="#FC7565"/>
<stop offset="0.3589" stop-color="#FD9B78"/>
<stop offset="0.5244" stop-color="#FEB886"/>
<stop offset="0.6876" stop-color="#FECD91"/>
<stop offset="0.8474" stop-color="#FFDA97"/>
<stop offset="1" stop-color="#FFDE99"/>
</radialGradient>
<radialGradient id="paint28_radial_3_6" cx="0" cy="0" r="1" gradientUnits="userSpaceOnUse" gradientTransform="translate(376.496 358.955) rotate(4.60567) scale(21.97 10.5904)">
<stop stop-color="#FA404B"/>
<stop offset="0.025" stop-color="#FA484F" stop-opacity="0.975"/>
<stop offset="0.1916" stop-color="#FC7565" stop-opacity="0.8084"/>
<stop offset="0.3589" stop-color="#FD9B78" stop-opacity="0.6411"/>
<stop offset="0.5244" stop-color="#FEB886" stop-opacity="0.4756"/>
<stop offset="0.6876" stop-color="#FECD91" stop-opacity="0.3124"/>
<stop offset="0.8474" stop-color="#FFDA97" stop-opacity="0.1526"/>
<stop offset="1" stop-color="#FFDE99" stop-opacity="0"/>
</radialGradient>
<radialGradient id="paint29_radial_3_6" cx="0" cy="0" r="1" gradientUnits="userSpaceOnUse" gradientTransform="translate(317.835 297.509) scale(99.1647)">
<stop stop-color="#FB8F8F"/>
<stop offset="1" stop-color="#F9C1DA" stop-opacity="0"/>
</radialGradient>
<radialGradient id="paint30_radial_3_6" cx="0" cy="0" r="1" gradientUnits="userSpaceOnUse" gradientTransform="translate(351.373 270.024) scale(24.7175)">
<stop stop-color="#FA404B"/>
<stop offset="0.025" stop-color="#FA484F" stop-opacity="0.975"/>
<stop offset="0.1916" stop-color="#FC7565" stop-opacity="0.8084"/>
<stop offset="0.3589" stop-color="#FD9B78" stop-opacity="0.6411"/>
<stop offset="0.5244" stop-color="#FEB886" stop-opacity="0.4756"/>
<stop offset="0.6876" stop-color="#FECD91" stop-opacity="0.3124"/>
<stop offset="0.8474" stop-color="#FFDA97" stop-opacity="0.1526"/>
<stop offset="1" stop-color="#FFDE99" stop-opacity="0"/>
</radialGradient>
<radialGradient id="paint31_radial_3_6" cx="0" cy="0" r="1" gradientUnits="userSpaceOnUse" gradientTransform="translate(331.468 237.413) scale(32.2111)">
<stop stop-color="#FA404B"/>
<stop offset="0.025" stop-color="#FA484F" stop-opacity="0.975"/>
<stop offset="0.1916" stop-color="#FC7565" stop-opacity="0.8084"/>
<stop offset="0.3589" stop-color="#FD9B78" stop-opacity="0.6411"/>
<stop offset="0.5244" stop-color="#FEB886" stop-opacity="0.4756"/>
<stop offset="0.6876" stop-color="#FECD91" stop-opacity="0.3124"/>
<stop offset="0.8474" stop-color="#FFDA97" stop-opacity="0.1526"/>
<stop offset="1" stop-color="#FFDE99" stop-opacity="0"/>
</radialGradient>
<radialGradient id="paint32_radial_3_6" cx="0" cy="0" r="1" gradientUnits="userSpaceOnUse" gradientTransform="translate(359.608 241.339) scale(24.0173)">
<stop stop-color="#FA404B"/>
<stop offset="0.025" stop-color="#FA484F" stop-opacity="0.975"/>
<stop offset="0.1916" stop-color="#FC7565" stop-opacity="0.8084"/>
<stop offset="0.3589" stop-color="#FD9B78" stop-opacity="0.6411"/>
<stop offset="0.5244" stop-color="#FEB886" stop-opacity="0.4756"/>
<stop offset="0.6876" stop-color="#FECD91" stop-opacity="0.3124"/>
<stop offset="0.8474" stop-color="#FFDA97" stop-opacity="0.1526"/>
<stop offset="1" stop-color="#FFDE99" stop-opacity="0"/>
</radialGradient>
<radialGradient id="paint33_radial_3_6" cx="0" cy="0" r="1" gradientUnits="userSpaceOnUse" gradientTransform="translate(393.202 232.177) scale(68.6385)">
<stop stop-color="#0061FE"/>
<stop offset="0.9947" stop-color="#241921"/>
</radialGradient>
<radialGradient id="paint34_radial_3_6" cx="0" cy="0" r="1" gradientUnits="userSpaceOnUse" gradientTransform="translate(226.218 303.399) scale(117.876)">
<stop stop-color="#FB8F8F"/>
<stop offset="1" stop-color="#F9C1DA" stop-opacity="0"/>
</radialGradient>
<radialGradient id="paint35_radial_3_6" cx="0" cy="0" r="1" gradientUnits="userSpaceOnUse" gradientTransform="translate(352.192 277.222) scale(58.8651)">
<stop stop-color="white"/>
<stop offset="1" stop-color="#F1D23C" stop-opacity="0"/>
</radialGradient>
<radialGradient id="paint36_radial_3_6" cx="0" cy="0" r="1" gradientUnits="userSpaceOnUse" gradientTransform="translate(223.273 297.4) scale(65.2931)">
<stop stop-color="#FA404B"/>
<stop offset="0.025" stop-color="#FA484F" stop-opacity="0.975"/>
<stop offset="0.1916" stop-color="#FC7565" stop-opacity="0.8084"/>
<stop offset="0.3589" stop-color="#FD9B78" stop-opacity="0.6411"/>
<stop offset="0.5244" stop-color="#FEB886" stop-opacity="0.4756"/>
<stop offset="0.6876" stop-color="#FECD91" stop-opacity="0.3124"/>
<stop offset="0.8474" stop-color="#FFDA97" stop-opacity="0.1526"/>
<stop offset="1" stop-color="#FFDE99" stop-opacity="0"/>
</radialGradient>
<linearGradient id="paint37_linear_3_6" x1="442.081" y1="260.449" x2="423.322" y2="348.14" gradientUnits="userSpaceOnUse">
<stop offset="0.1791" stop-color="#F9C1DA"/>
<stop offset="1" stop-color="#EECFF8" stop-opacity="0"/>
</linearGradient>
<radialGradient id="paint38_radial_3_6" cx="0" cy="0" r="1" gradientUnits="userSpaceOnUse" gradientTransform="translate(417.225 358.697) scale(9.19815)">
<stop stop-color="#FA404B"/>
<stop offset="0.025" stop-color="#FA484F" stop-opacity="0.975"/>
<stop offset="0.1916" stop-color="#FC7565" stop-opacity="0.8084"/>
<stop offset="0.3589" stop-color="#FD9B78" stop-opacity="0.6411"/>
<stop offset="0.5244" stop-color="#FEB886" stop-opacity="0.4756"/>
<stop offset="0.6876" stop-color="#FECD91" stop-opacity="0.3124"/>
<stop offset="0.8474" stop-color="#FFDA97" stop-opacity="0.1526"/>
<stop offset="1" stop-color="#FFDE99" stop-opacity="0"/>
</radialGradient>
<radialGradient id="paint39_radial_3_6" cx="0" cy="0" r="1" gradientUnits="userSpaceOnUse" gradientTransform="translate(208.707 403.244) scale(14.9855)">
<stop stop-color="#FB8F8F"/>
<stop offset="1" stop-color="#F9C1DA" stop-opacity="0"/>
</radialGradient>
<radialGradient id="paint40_radial_3_6" cx="0" cy="0" r="1" gradientUnits="userSpaceOnUse" gradientTransform="translate(213.13 394.525) scale(29.7202)">
<stop stop-color="white"/>
<stop offset="1" stop-color="#F1D23C" stop-opacity="0"/>
</radialGradient>
<radialGradient id="paint41_radial_3_6" cx="0" cy="0" r="1" gradientUnits="userSpaceOnUse" gradientTransform="translate(231.126 363.823) scale(15.4404)">
<stop stop-color="#FA404B"/>
<stop offset="0.025" stop-color="#FA484F" stop-opacity="0.975"/>
<stop offset="0.1916" stop-color="#FC7565" stop-opacity="0.8084"/>
<stop offset="0.3589" stop-color="#FD9B78" stop-opacity="0.6411"/>
<stop offset="0.5244" stop-color="#FEB886" stop-opacity="0.4756"/>
<stop offset="0.6876" stop-color="#FECD91" stop-opacity="0.3124"/>
<stop offset="0.8474" stop-color="#FFDA97" stop-opacity="0.1526"/>
<stop offset="1" stop-color="#FFDE99" stop-opacity="0"/>
</radialGradient>
<clipPath id="clip0_3_6">
<rect width="740" height="740" fill="white"/>
</clipPath>
</defs>
</svg>
